# xmcd
#
# Track frame offsets:
#  150
#  22555
#  43690
#  60312
#  80432
#  99990
#  126102
#  153822
#  172437
#  191987
#  223862
#
# Disc length: 3282 seconds
#
# Revision: 0
# Processed by: cddbd v1.5.1PL0 Copyright (c) Steve Scherf et al.
# Submitted via: Collectorz.com_Music_Collector 6.9
#
DISCID=8d0cd00b
DTITLE=John Froud and The PK's - "Seriously..."
DYEAR=1998
DGENRE=Blues - Christian - Worship
TTITLE0=Burdens
TTITLE1=Lost Without You
TTITLE2=The SPin
TTITLE3=Father's Business
TTITLE4=You Love Me More
TTITLE5=21st Century Prophet
TTITLE6=Face
TTITLE7=Tell Me
TTITLE8=Stressed
TTITLE9=I Hear You Calling
TTITLE10=Seriously Unrehearsed
EXTD=
EXTT0=
EXTT1=
EXTT2=
EXTT3=
EXTT4=
EXTT5=
EXTT6=
EXTT7=
EXTT8=
EXTT9=
EXTT10=
PLAYORDER=
